HIERARCHY
ROOT Hips
{
	OFFSET 0.000000 0.000000 0.000000 
	CHANNELS 6 Xposition Yposition Zposition Zrotation Yrotation Xrotation
	JOINT LeftUpLeg
	{
		OFFSET 1.363060 -1.794630 0.839290 
		CHANNELS 3 Zrotation Yrotation Xrotation
		JOINT LeftLeg
		{
			OFFSET 2.448110 -6.726130 0.000000 
			CHANNELS 3 Zrotation Yrotation Xrotation
			JOINT LeftFoot
			{
				OFFSET 2.562200 -7.039590 0.000000 
				CHANNELS 3 Zrotation Yrotation Xrotation
				JOINT LeftToeBase
				{
					OFFSET 0.157640 -0.433110 2.322550 
					CHANNELS 3 Zrotation Yrotation Xrotation
					End Site
					{
						OFFSET 0.000000 0.000000 0.000000 
					}
				}
			}
		}
	}
	JOINT RightUpLeg
	{
		OFFSET -1.305520 -1.794630 0.839290 
		CHANNELS 3 Zrotation Yrotation Xrotation
		JOINT RightLeg
		{
			OFFSET -2.542530 -6.985550 0.000000 
			CHANNELS 3 Zrotation Yrotation Xrotation
			JOINT RightFoot
			{
				OFFSET -2.568260 -7.056230 0.000000 
				CHANNELS 3 Zrotation Yrotation Xrotation
				JOINT RightToeBase
				{
					OFFSET -0.164730 -0.452590 2.363150 
					CHANNELS 3 Zrotation Yrotation Xrotation
					End Site
					{
						OFFSET 0.000000 0.000000 0.000000 
					}
				}
			}
		}
	}
	JOINT Spine
	{
		OFFSET 0.028270 2.035590 -0.193380 
		CHANNELS 3 Zrotation Yrotation Xrotation
		JOINT Spine1
		{
			OFFSET 0.056720 2.048850 -0.042750 
			CHANNELS 3 Zrotation Yrotation Xrotation
			JOINT Neck1
			{
				OFFSET -0.054170 1.746240 0.172020 
				CHANNELS 3 Zrotation Yrotation Xrotation
				JOINT Head
				{
					OFFSET 0.104070 1.761360 -0.123970 
					CHANNELS 3 Zrotation Yrotation Xrotation
					End Site
					{
						OFFSET 0.000000 0.000000 0.000000 
					}
				}
			}
			JOINT LeftArm
			{
				OFFSET 3.362410 1.200890 -0.311210 
				CHANNELS 3 Zrotation Yrotation Xrotation
				JOINT LeftForeArm
				{
					OFFSET 4.983000 -0.000000 -0.000000 
					CHANNELS 3 Zrotation Yrotation Xrotation
					JOINT LeftHand
					{
						OFFSET 3.483560 -0.000000 -0.000000 
						CHANNELS 3 Zrotation Yrotation Xrotation
						JOINT LeftHandIndex1
						{
							OFFSET 0.715260 -0.000000 -0.000000 
							CHANNELS 3 Zrotation Yrotation Xrotation
							End Site
							{
								OFFSET 0.000000 0.000000 0.000000 
							}
						}
					}
				}
			}
			JOINT RightArm
			{
				OFFSET -3.136600 1.374050 -0.404650 
				CHANNELS 3 Zrotation Yrotation Xrotation
				JOINT RightForeArm
				{
					OFFSET -5.241900 -0.000000 -0.000000 
					CHANNELS 3 Zrotation Yrotation Xrotation
					JOINT RightHand
					{
						OFFSET -3.444170 -0.000000 -0.000000 
						CHANNELS 3 Zrotation Yrotation Xrotation
						JOINT RightHandIndex1
						{
							OFFSET -0.622530 -0.000000 -0.000000 
							CHANNELS 3 Zrotation Yrotation Xrotation
							End Site
							{
								OFFSET 0.000000 0.000000 0.000000 
							}
						}
					}
				}
			}
		}
	}
}
MOTION
Frames: 10
Frame Time: 0.041667
-39.985931 17.454721 0.902995 -178.156749 67.549987 -175.524643 -10.801501 -9.731603 -12.633754 0.254882 9.652650 26.145559 -0.302870 3.160592 -1.591836 0.916600 -6.100000 -17.074900 21.570070 2.410107 -11.629743 -1.821371 -11.781560 33.755785 2.747905 -18.212456 -22.139129 -0.053000 -1.486300 4.088000 0.554162 1.330270 -1.680359 3.061878 0.589342 5.556438 10.400354 -19.423789 5.058951 11.260200 -8.137000 0.671100 -82.570629 4.360825 50.241509 79.356399 -61.868912 -49.518296 -1.459744 -0.815861 -36.076518 -7.125000 0.000000 0.000000 80.668886 4.952390 77.203697 -69.493173 60.047341 -40.808608 0.139106 -0.832939 -17.916949 7.125000 0.000000 0.000000 
-39.991762 17.470233 0.901895 -178.158656 67.425210 -175.459378 -10.876815 -9.527350 -13.057197 0.318481 9.793329 26.502732 -0.344388 3.355208 -1.524496 1.284000 -7.180700 -20.251700 21.543729 2.310207 -11.593862 -1.758083 -11.681837 33.449061 2.798737 -18.308311 -21.993046 -0.053500 -1.492700 4.105600 0.560744 1.348714 -1.673121 3.089870 0.595068 5.484507 10.485364 -19.613234 4.806195 11.279700 -8.183500 0.489800 -82.323481 4.324089 50.472710 79.405554 -61.872451 -49.554011 -1.459549 -0.824664 -36.212616 -7.125000 0.000000 0.000000 80.808647 5.232945 75.913314 -68.747131 59.902093 -40.309407 0.018426 -0.853964 -12.372569 7.125000 0.000000 0.000000 
-39.999243 17.479914 0.899805 -178.195531 67.302939 -175.443676 -10.920095 -9.207416 -13.440453 0.358502 9.881503 26.738667 -0.249677 2.907665 -1.188705 1.065100 -6.561100 -18.421400 21.498780 2.227415 -11.614595 -1.724436 -11.626736 33.281016 2.840242 -18.411004 -21.923509 -0.049800 -1.440000 3.960400 0.558090 1.360390 -1.678930 3.038362 0.605678 5.332222 10.542667 -19.750317 4.644090 11.292400 -8.227800 0.379400 -82.106133 4.283189 50.634945 79.001966 -61.850781 -49.230453 -1.450222 -0.837339 -36.115473 -7.125000 0.000000 0.000000 80.823986 5.136932 76.185196 -68.698475 59.884924 -40.243671 0.039251 -0.853653 -13.083657 7.125000 0.000000 0.000000 
-40.005734 17.480134 0.895845 -178.128474 67.191385 -175.356390 -10.904649 -9.162636 -13.664253 0.400991 9.970733 26.985420 -0.173644 2.546377 -1.028854 0.916300 -6.099200 -17.072400 21.502965 2.131646 -11.611246 -1.692381 -11.577117 33.128509 2.851109 -18.425199 -21.888317 -0.053000 -1.486200 4.087600 0.554268 1.378582 -1.671964 2.993535 0.625467 5.314300 10.575852 -19.727110 4.688407 11.317900 -8.222800 0.461000 -81.929682 4.210055 50.726634 78.749313 -61.834495 -49.045339 -1.438478 -0.849315 -36.085749 -7.125000 0.000000 0.000000 80.814558 5.106208 76.363028 -68.749793 59.903609 -40.271629 0.048993 -0.849823 -13.632505 7.125000 0.000000 0.000000 
-40.011894 17.477164 0.891444 -177.995145 67.115711 -175.171949 -10.859531 -9.162238 -13.881513 0.438140 10.050922 27.193457 -0.157575 2.475126 -1.063302 0.956000 -6.226200 -17.442000 21.550286 2.076734 -11.665525 -1.665759 -11.544168 33.016759 2.851037 -18.429800 -21.909827 -0.061200 -1.595700 4.389600 0.566953 1.390886 -1.658485 3.122772 0.625623 5.319032 10.720156 -19.714056 4.545707 11.470300 -8.179200 0.400000 -81.794633 4.346516 50.767494 79.110571 -61.856320 -49.339139 -1.444207 -0.862296 -36.163254 -7.125000 0.000000 0.000000 80.670299 5.109581 76.559466 -68.713721 59.903400 -40.261270 0.049885 -0.837114 -13.806597 7.125000 0.000000 0.000000 
-40.018495 17.473203 0.886493 -177.768447 67.009660 -174.857623 -10.750514 -9.087989 -14.157525 0.461138 10.103802 27.322145 -0.111292 2.258790 -0.953280 0.734800 -5.476300 -15.272200 21.638234 2.046699 -11.784579 -1.651541 -11.535730 32.975809 2.855636 -18.510550 -22.051356 -0.066900 -1.668200 4.589500 0.594490 1.392222 -1.659188 3.342298 0.607839 5.239241 10.784878 -19.814311 4.386723 11.537200 -8.198700 0.289500 -81.719922 4.619149 50.836133 79.597414 -61.885781 -49.695035 -1.464186 -0.873377 -36.129442 -7.125000 0.000000 0.000000 80.484054 5.071012 76.803855 -68.650426 59.874158 -40.233089 0.056982 -0.824834 -13.915920 7.125000 0.000000 0.000000 
-40.024546 17.474194 0.881433 -177.587721 66.908905 -174.611255 -10.671657 -9.153638 -14.296755 0.469572 10.127731 27.375303 -0.085173 2.137070 -0.906162 0.609400 -4.996700 -13.899300 21.703324 2.045226 -11.891692 -1.652580 -11.547838 32.998655 2.871792 -18.623036 -22.166742 -0.068000 -1.681800 4.627100 0.602505 1.434090 -1.661090 3.361952 0.626746 5.149589 10.798373 -19.949272 4.283916 11.523100 -8.251400 0.219300 -81.585446 4.700530 51.004871 79.692851 -61.888344 -49.751493 -1.469162 -0.875662 -36.092847 -7.125000 0.000000 0.000000 80.385886 4.938218 77.582904 -68.843869 59.897362 -40.343885 0.133229 -0.809885 -16.904274 7.125000 0.000000 0.000000 
-40.032357 17.465613 0.874722 -177.867271 66.778458 -174.864562 -10.781243 -9.533789 -14.198343 0.467145 10.144024 27.418848 -0.002152 1.743164 -1.079274 0.153100 -2.521600 -6.949500 21.570921 2.089920 -11.911693 -1.661105 -11.559359 33.040857 2.888191 -18.737489 -22.307049 -0.075200 -1.769600 4.869300 0.580295 1.485346 -1.658508 3.181714 0.669586 5.038127 10.870959 -20.042620 4.185535 11.550400 -8.285800 0.161000 -81.281561 4.736390 51.218308 79.649486 -61.871115 -49.733888 -1.456271 -0.874354 -36.153035 -7.125000 0.000000 0.000000 80.583540 4.874640 77.360027 -68.857108 59.900413 -40.336714 0.124428 -0.821151 -16.511414 7.125000 0.000000 0.000000 
-40.040278 17.451531 0.866801 -178.330930 66.591386 -175.296294 -10.976537 -9.865496 -14.133540 0.461583 10.166365 27.464614 0.098747 1.250223 -1.079336 0.000300 0.112800 0.309900 21.359633 2.088995 -11.894590 -1.667930 -11.562236 33.073442 2.874681 -18.775486 -22.522669 -0.093600 -1.973300 5.431900 0.572807 1.528399 -1.630201 3.230675 0.687802 5.140658 10.970112 -20.158638 4.144995 11.594900 -8.324000 0.217400 -81.068593 4.616982 51.455515 79.635098 -61.878444 -49.701373 -1.456723 -0.876809 -36.176695 -7.125000 0.000000 0.000000 80.573359 4.984542 77.240269 -68.823882 59.899103 -40.337797 0.126680 -0.815752 -16.305335 7.125000 0.000000 0.000000 
-40.046109 17.457361 0.858770 -178.556714 66.423381 -175.498340 -11.157122 -9.816757 -14.260037 0.471586 10.201452 27.524165 -0.041575 1.918944 -0.908955 0.261100 -3.287600 -9.080500 21.231729 1.880640 -11.935907 -1.670350 -11.553901 33.071832 2.845084 -18.707221 -22.627056 -0.109300 -2.131800 5.870000 0.572945 1.510232 -1.608696 3.259971 0.679563 5.252338 10.972791 -20.191856 4.211165 11.568300 -8.338700 0.374200 -80.975854 4.490180 51.495934 79.656038 -61.876307 -49.723775 -1.454849 -0.885056 -36.074527 -7.125000 0.000000 0.000000 80.545820 5.150920 77.312704 -68.722188 59.884610 -40.260652 0.128574 -0.812799 -16.215001 7.125000 0.000000 0.000000 
